<?xml version="1.0" encoding="UTF-8"?>
<svg version="1.1" xmlns="http://www.w3.org/2000/svg" width="512" height="512">
<path d="M0 0 C2.62197922 -0.00224122 5.24356946 -0.0207389 7.86547852 -0.03930664 C35.11805334 -0.12936241 58.91315906 3.36729515 80.37915039 21.30249023 C82.25805664 23.18530273 82.25805664 23.18530273 82.25805664 25.18530273 C82.91805664 25.18530273 83.57805664 25.18530273 84.25805664 25.18530273 C98.80053449 39.33474064 106.2208624 64.55306431 106.55883789 84.16967773 C106.57642803 86.35251142 106.58023578 88.53463515 106.57373047 90.7175293 C106.57058107 92.91823446 106.59407709 95.11757608 106.61938477 97.31811523 C106.68332609 111.0155553 104.31587281 123.57375956 99.44555664 136.43530273 C99.09227295 137.38058838 98.73898926 138.32587402 98.375 139.29980469 C93.9532076 150.89661879 88.35485624 159.7742838 80.25805664 169.18530273 C79.40205839 170.26718942 78.54750297 171.35022244 77.69555664 172.43530273 C61.8634477 190.29716923 37.49841302 199.31824783 14.25805664 202.18530273 C9.36351495 202.39702591 4.46927264 202.37040727 -0.42944336 202.37280273 C-1.72817383 202.38504883 -3.0269043 202.39729492 -4.36499023 202.40991211 C-20.65162203 202.43445249 -20.65162203 202.43445249 -27.74194336 200.18530273 C-30.03926772 196.73931619 -30.73031393 193.52033642 -31.58178711 189.54467773 C-31.74941055 188.78544006 -31.917034 188.02620239 -32.08973694 187.24395752 C-32.62559236 184.80900109 -33.15246331 182.37219356 -33.67944336 179.93530273 C-34.02980348 178.34143144 -34.38070964 176.74768007 -34.73217773 175.15405273 C-37.64803516 161.87819682 -40.37642003 148.57138182 -42.74194336 135.18530273 C-42.14881348 135.22606934 -41.55568359 135.26683594 -40.94458008 135.30883789 C-15.82969055 137.20816091 -15.82969055 137.20816091 6.50805664 127.06030273 C14.42126074 119.6830527 17.16190284 109.43747302 17.63305664 98.93530273 C17.46236321 91.7963012 16.18561191 83.82740349 11.60961914 78.13452148 C9.89655263 76.62717257 8.19580454 75.38548443 6.25805664 74.18530273 C5.37118164 73.58717773 4.48430664 72.98905273 3.57055664 72.37280273 C-0.11095757 70.48229544 -3.30656517 70.06048027 -7.41870117 70.07177734 C-8.33935364 70.07185287 -9.2600061 70.07192841 -10.20855713 70.07200623 C-11.19410583 70.07716751 -12.17965454 70.0823288 -13.19506836 70.08764648 C-14.71810577 70.08976891 -14.71810577 70.08976891 -16.27191162 70.0919342 C-19.51195228 70.09752757 -22.75192361 70.11007889 -25.99194336 70.12280273 C-28.18985903 70.12781859 -30.38777578 70.13238135 -32.58569336 70.13647461 C-37.97113364 70.14749483 -43.35653355 70.1642264 -48.74194336 70.18530273 C-48.72732811 71.52814583 -48.72732811 71.52814583 -48.7124176 72.89811707 C-48.63411431 86.53324344 -49.07674086 100.14551905 -49.51672816 113.77231622 C-49.62772574 117.22934734 -49.73550851 120.68647882 -49.84364319 124.14360046 C-50.04933215 130.70529174 -50.25759891 137.26689829 -50.46693188 143.82847422 C-50.72385874 151.88420785 -50.97820552 159.94002236 -51.23217773 167.99584961 C-51.25464321 168.70827041 -51.27710869 169.42069121 -51.30025494 170.15470052 C-52.5433568 209.58058827 -53.7768397 248.99224451 -54.30444336 288.43530273 C-54.44881836 298.91280273 -54.59319336 309.39030273 -54.74194336 320.18530273 C-83.45194336 320.18530273 -112.16194336 320.18530273 -141.74194336 320.18530273 C-141.74194336 299.70852311 -141.74194336 299.70852311 -140.83103943 289.69723511 C-138.4460608 262.84516933 -137.19680085 235.92453144 -135.87337875 209.00375366 C-135.70994858 205.68059087 -135.54560195 202.35747616 -135.38077444 199.03438258 C-132.12803852 133.42341917 -130.45131883 67.86967245 -129.74194336 2.18530273 C-128.83581299 2.17499527 -127.92968262 2.16468781 -126.99609375 2.15406799 C-118.29406387 2.05451076 -109.59207696 1.95182937 -100.89012146 1.84596348 C-96.42049838 1.79168861 -91.95086889 1.73846472 -87.48120117 1.68798828 C-68.52211878 1.47313834 -49.57711799 1.1702399 -30.62739563 0.52813721 C-20.41699904 0.18760074 -10.2160307 -0.00096972 0 0 Z " fill="#7029E5" transform="translate(235.741943359375,67.814697265625)"/>
<path d="M0 0 C1.11455566 -0.00630432 2.22911133 -0.01260864 3.37744141 -0.019104 C4.58577637 -0.01505554 5.79411133 -0.01100708 7.0390625 -0.00683594 C8.89217041 -0.00970612 8.89217041 -0.00970612 10.78271484 -0.01263428 C14.06997657 -0.01434704 17.35705037 -0.00627793 20.64428711 0.00488281 C22.6620078 0.00878509 24.67955451 0.00489736 26.69726562 -0.00195312 C30.56128078 -0.01427098 34.42503678 -0.01282072 38.2890625 -0.00683594 C39.49739746 -0.0108844 40.70573242 -0.01493286 41.95068359 -0.019104 C43.06523926 -0.01279968 44.17979492 -0.00649536 45.328125 0 C46.80466553 0.00238678 46.80466553 0.00238678 48.31103516 0.00482178 C50.6640625 0.25878906 50.6640625 0.25878906 52.6640625 2.25878906 C52.91574478 5.24795532 52.91574478 5.24795532 52.91802979 9.16748047 C52.92114977 9.8864834 52.92426975 10.60548634 52.92748427 11.34627724 C52.93549379 13.7677175 52.92912926 16.18890921 52.92285156 18.61035156 C52.92556012 20.34137113 52.92912028 22.07238954 52.93347168 23.80340576 C52.94261408 28.51404377 52.93904383 33.22459448 52.93271351 37.93523407 C52.92766307 42.856402 52.93234229 47.77756226 52.93548584 52.69873047 C52.93912828 60.96420641 52.9343191 69.22964666 52.92480469 77.49511719 C52.91391961 87.06203128 52.91744499 96.62886014 52.9284575 106.19577217 C52.93752246 114.39790643 52.93881953 122.60001498 52.93358016 130.80215263 C52.9304561 135.70610833 52.93006304 140.61002391 52.93665314 145.51397705 C52.9424145 150.12352759 52.93845199 154.73296783 52.92686462 159.34250641 C52.92421154 161.03807644 52.92499412 162.7336557 52.92938995 164.42922211 C52.93482142 166.73630756 52.92804086 169.04303526 52.91802979 171.35009766 C52.91727573 172.64354095 52.91652168 173.93698425 52.91574478 175.2696228 C52.6640625 178.25878906 52.6640625 178.25878906 50.6640625 180.25878906 C48.31103516 180.51275635 48.31103516 180.51275635 45.328125 180.51757812 C44.21356934 180.52388245 43.09901367 180.53018677 41.95068359 180.53668213 C40.74234863 180.53263367 39.53401367 180.52858521 38.2890625 180.52441406 C36.43595459 180.52728424 36.43595459 180.52728424 34.54541016 180.5302124 C31.25814843 180.53192517 27.97107463 180.52385605 24.68383789 180.51269531 C22.6661172 180.50879304 20.64857049 180.51268077 18.63085938 180.51953125 C14.76684422 180.5318491 10.90308822 180.53039884 7.0390625 180.52441406 C5.83072754 180.52846252 4.62239258 180.53251099 3.37744141 180.53668213 C2.26288574 180.53037781 1.14833008 180.52407349 0 180.51757812 C-0.98436035 180.51598694 -1.9687207 180.51439575 -2.98291016 180.51275635 C-5.3359375 180.25878906 -5.3359375 180.25878906 -7.3359375 178.25878906 C-7.58761978 175.2696228 -7.58761978 175.2696228 -7.58990479 171.35009766 C-7.59302477 170.63109472 -7.59614475 169.91209179 -7.59935927 169.17130089 C-7.60736879 166.74986063 -7.60100426 164.32866892 -7.59472656 161.90722656 C-7.59743512 160.176207 -7.60099528 158.44518858 -7.60534668 156.71417236 C-7.61448908 152.00353436 -7.61091883 147.29298365 -7.60458851 142.58234406 C-7.59953807 137.66117613 -7.60421729 132.74001586 -7.60736084 127.81884766 C-7.61100328 119.55337171 -7.6061941 111.28793147 -7.59667969 103.02246094 C-7.58579461 93.45554684 -7.58931999 83.88871798 -7.6003325 74.32180595 C-7.60939746 66.11967169 -7.61069453 57.91756314 -7.60545516 49.71542549 C-7.6023311 44.8114698 -7.60193804 39.90755422 -7.60852814 35.00360107 C-7.6142895 30.39405054 -7.61032699 25.78461029 -7.59873962 21.17507172 C-7.59608654 19.47950168 -7.59686912 17.78392243 -7.60126495 16.08835602 C-7.60669642 13.78127057 -7.59991586 11.47454287 -7.58990479 9.16748047 C-7.58915073 7.87403717 -7.58839668 6.58059387 -7.58761978 5.24795532 C-7.13991323 -0.06934123 -4.69830146 0.00759465 0 0 Z " fill="#501CA5" transform="translate(349.3359375,207.7412109375)"/>
<path d="M0 0 C1.11455566 -0.00630432 2.22911133 -0.01260864 3.37744141 -0.019104 C4.58577637 -0.01505554 5.79411133 -0.01100708 7.0390625 -0.00683594 C8.89217041 -0.00970612 8.89217041 -0.00970612 10.78271484 -0.01263428 C14.06997657 -0.01434704 17.35705037 -0.00627793 20.64428711 0.00488281 C22.6620078 0.00878509 24.67955451 0.00489736 26.69726562 -0.00195312 C30.56128078 -0.01427098 34.42503678 -0.01282072 38.2890625 -0.00683594 C39.49739746 -0.0108844 40.70573242 -0.01493286 41.95068359 -0.019104 C43.06523926 -0.01279968 44.17979492 -0.00649536 45.328125 0 C46.80466553 0.00238678 46.80466553 0.00238678 48.31103516 0.00482178 C50.6640625 0.25878906 50.6640625 0.25878906 52.6640625 2.25878906 C52.91574478 4.31091309 52.91574478 4.31091309 52.91802979 6.88964844 C52.92366943 7.86554932 52.92930908 8.8414502 52.93511963 9.84692383 C52.93107117 10.92127686 52.92702271 11.99562988 52.92285156 13.10253906 C52.9263562 14.23103271 52.92986084 15.35952637 52.93347168 16.5222168 C52.94230381 20.26780271 52.93643454 24.01320109 52.9296875 27.75878906 C52.93103372 30.35188839 52.93297389 32.94498748 52.93548584 35.53808594 C52.93843912 40.97886788 52.9343225 46.41957881 52.92480469 51.86035156 C52.91391981 58.15538633 52.91744529 64.45029156 52.9284575 70.74532318 C52.93861764 76.79483333 52.93755423 82.84427995 52.93169403 88.89379883 C52.93035601 91.47111021 52.93201056 94.04842488 52.93665314 96.62573242 C52.94170926 100.22225819 52.93402084 103.81853214 52.92285156 107.41503906 C52.92690002 108.48939209 52.93094849 109.56374512 52.93511963 110.6706543 C52.92666016 112.13450562 52.92666016 112.13450562 52.91802979 113.62792969 C52.91727573 114.47891235 52.91652168 115.32989502 52.91574478 116.20666504 C52.6640625 118.25878906 52.6640625 118.25878906 50.6640625 120.25878906 C48.31103516 120.51275635 48.31103516 120.51275635 45.328125 120.51757812 C44.21356934 120.52388245 43.09901367 120.53018677 41.95068359 120.53668213 C40.13818115 120.53060944 40.13818115 120.53060944 38.2890625 120.52441406 C36.43595459 120.52728424 36.43595459 120.52728424 34.54541016 120.5302124 C31.25814843 120.53192517 27.97107463 120.52385605 24.68383789 120.51269531 C22.6661172 120.50879304 20.64857049 120.51268077 18.63085938 120.51953125 C14.76684422 120.5318491 10.90308822 120.53039884 7.0390625 120.52441406 C5.83072754 120.52846252 4.62239258 120.53251099 3.37744141 120.53668213 C2.26288574 120.53037781 1.14833008 120.52407349 0 120.51757812 C-0.98436035 120.51598694 -1.9687207 120.51439575 -2.98291016 120.51275635 C-5.3359375 120.25878906 -5.3359375 120.25878906 -7.3359375 118.25878906 C-7.58761978 116.20666504 -7.58761978 116.20666504 -7.58990479 113.62792969 C-7.59554443 112.65202881 -7.60118408 111.67612793 -7.60699463 110.6706543 C-7.60294617 109.59630127 -7.59889771 108.52194824 -7.59472656 107.41503906 C-7.5982312 106.28654541 -7.60173584 105.15805176 -7.60534668 103.99536133 C-7.61417881 100.24977542 -7.60830954 96.50437703 -7.6015625 92.75878906 C-7.60290872 90.16568973 -7.60484889 87.57259065 -7.60736084 84.97949219 C-7.61031412 79.53871024 -7.6061975 74.09799932 -7.59667969 68.65722656 C-7.58579481 62.3621918 -7.58932029 56.06728657 -7.6003325 49.77225494 C-7.61049264 43.7227448 -7.60942923 37.67329817 -7.60356903 31.6237793 C-7.60223101 29.04646792 -7.60388556 26.46915325 -7.60852814 23.8918457 C-7.61358426 20.29531994 -7.60589584 16.69904598 -7.59472656 13.10253906 C-7.59877502 12.02818604 -7.60282349 10.95383301 -7.60699463 9.84692383 C-7.60135498 8.87102295 -7.59571533 7.89512207 -7.58990479 6.88964844 C-7.58877371 5.61317444 -7.58877371 5.61317444 -7.58761978 4.31091309 C-7.01743382 -0.33817189 -3.90237021 0.00630805 0 0 Z " fill="#501CA5" transform="translate(277.3359375,267.7412109375)"/>
<path d="M0 0 C1.11455566 -0.00630432 2.22911133 -0.01260864 3.37744141 -0.019104 C4.58577637 -0.01505554 5.79411133 -0.01100708 7.0390625 -0.00683594 C8.89217041 -0.00970612 8.89217041 -0.00970612 10.78271484 -0.01263428 C14.06997657 -0.01434704 17.35705037 -0.00627793 20.64428711 0.00488281 C22.6620078 0.00878509 24.67955451 0.00489736 26.69726562 -0.00195312 C30.56128078 -0.01427098 34.42503678 -0.01282072 38.2890625 -0.00683594 C39.49739746 -0.0108844 40.70573242 -0.01493286 41.95068359 -0.019104 C43.06523926 -0.01279968 44.17979492 -0.00649536 45.328125 0 C46.80466553 0.00238678 46.80466553 0.00238678 48.31103516 0.00482178 C50.6640625 0.25878906 50.6640625 0.25878906 52.6640625 2.25878906 C52.91802979 4.61181641 52.91802979 4.61181641 52.92285156 7.59472656 C52.92915588 8.70928223 52.93546021 9.82383789 52.94195557 10.97216797 C52.9379071 12.18050293 52.93385864 13.38883789 52.9296875 14.63378906 C52.93255768 16.48689697 52.93255768 16.48689697 52.93548584 18.37744141 C52.9371986 21.66470313 52.92912949 24.95177694 52.91796875 28.23901367 C52.91406647 30.25673436 52.91795421 32.27428107 52.92480469 34.29199219 C52.93712254 38.15600735 52.93567228 42.01976334 52.9296875 45.88378906 C52.93373596 47.09212402 52.93778442 48.30045898 52.94195557 49.54541016 C52.93565125 50.65996582 52.92934692 51.77452148 52.92285156 52.92285156 C52.92126038 53.90721191 52.91966919 54.89157227 52.91802979 55.90576172 C52.6640625 58.25878906 52.6640625 58.25878906 50.6640625 60.25878906 C48.31103516 60.51275635 48.31103516 60.51275635 45.328125 60.51757812 C44.21356934 60.52388245 43.09901367 60.53018677 41.95068359 60.53668213 C40.74234863 60.53263367 39.53401367 60.52858521 38.2890625 60.52441406 C36.43595459 60.52728424 36.43595459 60.52728424 34.54541016 60.5302124 C31.25814843 60.53192517 27.97107463 60.52385605 24.68383789 60.51269531 C22.6661172 60.50879304 20.64857049 60.51268077 18.63085938 60.51953125 C14.76684422 60.5318491 10.90308822 60.53039884 7.0390625 60.52441406 C5.83072754 60.52846252 4.62239258 60.53251099 3.37744141 60.53668213 C1.70560791 60.52722565 1.70560791 60.52722565 0 60.51757812 C-0.98436035 60.51598694 -1.9687207 60.51439575 -2.98291016 60.51275635 C-5.3359375 60.25878906 -5.3359375 60.25878906 -7.3359375 58.25878906 C-7.58990479 55.90576172 -7.58990479 55.90576172 -7.59472656 52.92285156 C-7.60103088 51.8082959 -7.60733521 50.69374023 -7.61383057 49.54541016 C-7.6097821 48.3370752 -7.60573364 47.12874023 -7.6015625 45.88378906 C-7.60347595 44.64838379 -7.6053894 43.41297852 -7.60736084 42.14013672 C-7.6090736 38.85287499 -7.60100449 35.56580119 -7.58984375 32.27856445 C-7.58594147 30.26084377 -7.58982921 28.24329705 -7.59667969 26.22558594 C-7.60899754 22.36157078 -7.60754728 18.49781478 -7.6015625 14.63378906 C-7.60561096 13.4254541 -7.60965942 12.21711914 -7.61383057 10.97216797 C-7.60752625 9.8576123 -7.60122192 8.74305664 -7.59472656 7.59472656 C-7.59313538 6.61036621 -7.59154419 5.62600586 -7.58990479 4.61181641 C-7.06480489 -0.25327638 -4.1611886 0.00672643 0 0 Z " fill="#501CA5" transform="translate(204.3359375,327.7412109375)"/>
</svg>
